<svg xmlns="http://www.w3.org/2000/svg" viewBox="0 0 49 41.93"><defs><style>.cls-1{fill:#020202;}</style></defs><title>icon-down</title><g id="레이어_2" data-name="레이어 2"><g id="레이어_1-2" data-name="레이어 1"><path class="cls-1" d="M47,21.5a2,2,0,0,0-2,2v7.93a6.51,6.51,0,0,1-6.5,6.5h-28A6.51,6.51,0,0,1,4,31.43V23.5a2,2,0,0,0-4,0v7.93a10.51,10.51,0,0,0,10.5,10.5h28A10.51,10.51,0,0,0,49,31.43V23.5A2,2,0,0,0,47,21.5Z"/><path class="cls-1" d="M22.6,26.92a2,2,0,0,0,1.41.59,1.53,1.53,0,0,0,.3,0l.19,0,.19,0a1.53,1.53,0,0,0,.3,0,2,2,0,0,0,1.41-.59l10-10a2,2,0,1,0-2.82-2.82l-7.1,7.09V2a2,2,0,0,0-4,0V21.17l-7.1-7.09a2,2,0,1,0-2.82,2.82Z"/></g></g></svg>