<svg xmlns="http://www.w3.org/2000/svg" viewBox="0 0 227.34 47.95"><defs><style>.cls-1{fill:#e34f4e;}.cls-2{fill:#292b2e;}</style></defs><title>자산 1</title><g id="레이어_2" data-name="레이어 2"><g id="Layer_1" data-name="Layer 1"><path class="cls-1" d="M121.33,42.17H9.65A9.66,9.66,0,0,1,0,32.52V9.65A9.66,9.66,0,0,1,9.65,0h84a1.81,1.81,0,0,1,0,3.61h-84a6,6,0,0,0-6,6V32.52a6,6,0,0,0,6,6H121.33a6,6,0,0,0,6-6V9.65a6,6,0,0,0-6-6h-8.22a1.81,1.81,0,0,1,0-3.61h8.22A9.66,9.66,0,0,1,131,9.65V32.52A9.66,9.66,0,0,1,121.33,42.17Z"/><path class="cls-1" d="M23.56,18.36H19a1.29,1.29,0,0,1-1.29-1.29h0A1.33,1.33,0,0,1,19,15.75h9a2.93,2.93,0,0,0,2.93-2.93v-.2A2.93,2.93,0,0,0,28,9.69H18.61a7.23,7.23,0,0,0-2.29.38,7.15,7.15,0,0,0-4,10.13,6.58,6.58,0,0,0,6.24,3.61H23.2a1.29,1.29,0,0,1,1.28,1.28v0a1.29,1.29,0,0,1-1.28,1.29h-9a2.94,2.94,0,0,0-2.93,2.93v.2a2.94,2.94,0,0,0,2.93,2.93h9.15a7.22,7.22,0,0,0,7.3-6.93A7.06,7.06,0,0,0,23.56,18.36Z"/><path class="cls-1" d="M85.93,9.69a11.4,11.4,0,1,0,11.4,11.39A11.39,11.39,0,0,0,85.93,9.69Zm0,16.71a5.32,5.32,0,1,1,5.32-5.32A5.32,5.32,0,0,1,85.93,26.4Z"/><path class="cls-1" d="M61.63,9.69A11.4,11.4,0,1,0,73,21.08,11.4,11.4,0,0,0,61.63,9.69Zm0,16.71a5.32,5.32,0,1,1,5.31-5.32A5.32,5.32,0,0,1,61.63,26.4Z"/><path class="cls-1" d="M118.85,27.24l-6.37-6.41a.73.73,0,0,1,.07-1.1l6-4.59a3.05,3.05,0,0,0,.56-4.27h0a3.06,3.06,0,0,0-3-1.11,3,3,0,0,0-1.24.56l-7.18,5.52a.76.76,0,0,1-1.22-.6V6.79a3.13,3.13,0,0,0-2.73-3.16,3,3,0,0,0-3.35,3V29.29a3.14,3.14,0,0,0,2.73,3.17,3,3,0,0,0,3.35-3V25.27a.76.76,0,0,1,1.29-.54l6.71,6.71a3.13,3.13,0,0,0,4.17.31A3,3,0,0,0,118.85,27.24Z"/><path class="cls-1" d="M48.68,12.27v0a3.12,3.12,0,0,0-3.49-2.53,18.43,18.43,0,0,0-2.37.26,11.23,11.23,0,0,0-3,1,11.42,11.42,0,0,0-6,8,11.13,11.13,0,0,0-.2,2.09v8.47a2.94,2.94,0,0,0,2.93,2.93h.22a2.94,2.94,0,0,0,2.93-2.93V21.31s0,0,0-.07a.57.57,0,0,1,0-.13v-.05a5.41,5.41,0,0,1,4-5.11,14.58,14.58,0,0,1,2.47-.19A3,3,0,0,0,48.68,12.27Z"/><path class="cls-2" d="M143.14,6.65h4l.42,3.3h.16c2.61-2.13,5.85-4,9.2-4,7.44,0,11.48,5.84,11.48,14.72,0,9.89-5.9,15.58-12.55,15.58-2.6,0-5.36-1.23-8-3.35l.11,5v9.78h-4.84Zm20.2,14c0-6.38-2.13-10.68-7.6-10.68-2.45,0-5,1.38-7.76,4V29.14a11.18,11.18,0,0,0,7.07,3C159.83,32.17,163.34,27.86,163.34,20.68Z"/><path class="cls-2" d="M173.44,28c0-6.27,5.47-9.41,17.75-10.79,0-3.72-1.22-7.28-5.95-7.28A15.88,15.88,0,0,0,176.58,13l-1.92-3.35C177.32,8,181.41,5.91,186,5.91c7,0,10,4.73,10,11.85V35.51h-4l-.42-3.45h-.16c-2.76,2.29-6,4.15-9.57,4.15C177.05,36.21,173.44,33.23,173.44,28Zm17.75.48V20.42c-9.72,1.17-13,3.56-13,7.28,0,3.3,2.23,4.63,5.1,4.63S188.38,31,191.19,28.5Z"/><path class="cls-2" d="M202.3,47.37l1-3.88a6.91,6.91,0,0,0,2.18.48c3.29,0,5.37-2.66,6.54-6.22l.63-2.18L201,6.65h5.05l5.9,16c.85,2.5,1.86,5.48,2.76,8.08H215c.79-2.6,1.64-5.52,2.44-8.08l5.16-16h4.73l-10.9,31.26c-2,5.68-5,10-10.74,10A9,9,0,0,1,202.3,47.37Z"/></g></g></svg>