<svg xmlns="http://www.w3.org/2000/svg" viewBox="0 0 180.36 47.98"><defs><style>.cls-1{fill:#e44f4e;}</style></defs><title>logo-srook</title><g id="레이어_2" data-name="레이어 2"><g id="Layer_1" data-name="Layer 1"><path class="cls-1" d="M20.47,24.52H12.84a2.14,2.14,0,0,1-2.13-2.13h0a2.21,2.21,0,0,1,2.2-2.2H27.85a4.89,4.89,0,0,0,4.87-4.87V15a4.88,4.88,0,0,0-4.87-4.87H12.24a11.65,11.65,0,0,0-3.8.63C2.17,12.89-1.7,20.18,1.88,27.58a10.93,10.93,0,0,0,10.36,6h7.63A2.14,2.14,0,0,1,22,35.71v.07a2.14,2.14,0,0,1-2.14,2.13h-15A4.88,4.88,0,0,0,0,42.78v.33A4.88,4.88,0,0,0,4.87,48H20.09A12,12,0,0,0,32.21,36.47,11.73,11.73,0,0,0,20.47,24.52Z"/><path class="cls-1" d="M124.17,10.11A18.94,18.94,0,1,0,143.1,29,18.93,18.93,0,0,0,124.17,10.11Zm0,27.77A8.84,8.84,0,1,1,133,29,8.84,8.84,0,0,1,124.17,37.88Z"/><path class="cls-1" d="M83.76,10.11A18.94,18.94,0,1,0,102.7,29,18.93,18.93,0,0,0,83.76,10.11Zm0,27.77A8.84,8.84,0,1,1,92.59,29,8.84,8.84,0,0,1,83.76,37.88Z"/><path class="cls-1" d="M178.88,39.29,168.29,28.63a1.22,1.22,0,0,1,.12-1.84l10-7.63a5.07,5.07,0,0,0,.92-7.09h0a5,5,0,0,0-5-1.84,4.9,4.9,0,0,0-2.06.92L160.3,20.33a1.26,1.26,0,0,1-2-1v-14A5.22,5.22,0,0,0,153.73,0a5.06,5.06,0,0,0-5.57,5V42.69A5.22,5.22,0,0,0,152.69,48a5.08,5.08,0,0,0,5.58-5V36a1.25,1.25,0,0,1,2.14-.89l11.16,11.16a5.22,5.22,0,0,0,6.93.51A5.06,5.06,0,0,0,178.88,39.29Z"/><path class="cls-1" d="M62.24,14.39v-.05a5,5,0,0,0-2.5-3.56,5.29,5.29,0,0,0-3.3-.65,30.64,30.64,0,0,0-3.93.43A19,19,0,0,0,37.26,29V43.11A4.89,4.89,0,0,0,42.13,48h.37a4.88,4.88,0,0,0,4.87-4.87V29.42s0-.08,0-.11,0-.15,0-.23V29A9,9,0,0,1,54,20.51a24,24,0,0,1,4.11-.32A5,5,0,0,0,62.24,14.39Z"/></g></g></svg>