<svg xmlns="http://www.w3.org/2000/svg" viewBox="0 0 567.59 213.58"><defs><style>.cls-1{isolation:isolate;}.cls-2{fill:#222;}</style></defs><title>text-are</title><g id="레이어_2" data-name="레이어 2"><g id="레이어_1-2" data-name="레이어 1"><g class="cls-1"><path class="cls-2" d="M67.85,21.91A29.61,29.61,0,0,1,81.44,5.41,41.26,41.26,0,0,1,101.9,0a37.69,37.69,0,0,1,19.41,5.54,29.44,29.44,0,0,1,13.07,16.37l68.9,191.67H145.2l-10.3-32.74H67.06L57,213.58H0ZM80.78,136.22h40.4L101.11,70.49Z"/><path class="cls-2" d="M386.49,73.13q0,19-8.84,33.13a72.39,72.39,0,0,1-23.1,23.1l50.16,84.22H345l-39.59-71h-33.8v71H217.53V42.77a80.59,80.59,0,0,1,2-19.27,28.44,28.44,0,0,1,6.74-12.94A27.26,27.26,0,0,1,238.92,3.3a74.17,74.17,0,0,1,19.8-2.24h48.57A116.39,116.39,0,0,1,339,5.15a68.87,68.87,0,0,1,25.08,12.67,58.94,58.94,0,0,1,16.5,21.52q5.94,12.93,5.94,30.62ZM271.65,97.94H306q13.47,0,20.2-7.39a25,25,0,0,0,6.73-17.42V71.28a25,25,0,0,0-6.73-17.42q-6.74-7.39-20.2-7.4H279.31q-4.5,0-6.07,1.46c-1.06,1-1.59,3-1.59,6.2Z"/><path class="cls-2" d="M469.12,83.16h72.07A20.67,20.67,0,0,1,551,85.27a20.22,20.22,0,0,1,6.6,5.55,22.51,22.51,0,0,1,3.83,7.52,28.86,28.86,0,0,1,1.19,8,27.51,27.51,0,0,1-1.19,7.92,22.68,22.68,0,0,1-3.7,7.26,17.79,17.79,0,0,1-6.6,5.28,22.58,22.58,0,0,1-9.9,2H469.12v30.89q0,4.75,1.59,6.2t6.07,1.46h69.43a22.58,22.58,0,0,1,9.9,2,18,18,0,0,1,6.6,5.28,22.62,22.62,0,0,1,3.7,7.39,28.84,28.84,0,0,1,1.18,8.05,30.17,30.17,0,0,1-1.18,8.18,22.7,22.7,0,0,1-3.83,7.66,20.07,20.07,0,0,1-6.6,5.54,20.55,20.55,0,0,1-9.77,2.12h-90a73.8,73.8,0,0,1-19.81-2.25,27.19,27.19,0,0,1-12.67-7.26A28.34,28.34,0,0,1,417,191.14a80.67,80.67,0,0,1-2-19.28V42.77a80.59,80.59,0,0,1,2-19.27,28.43,28.43,0,0,1,6.73-12.94A27.36,27.36,0,0,1,436.38,3.3a74.25,74.25,0,0,1,19.81-2.24h87.38a20.55,20.55,0,0,1,9.77,2.11,20.32,20.32,0,0,1,6.6,5.54,22.5,22.5,0,0,1,3.82,7.66A29.87,29.87,0,0,1,565,24.55a28.45,28.45,0,0,1-1.19,8.05,22.45,22.45,0,0,1-3.69,7.4,18,18,0,0,1-6.6,5.28,22.58,22.58,0,0,1-9.9,2H476.78q-4.5,0-6.07,1.45c-1.06,1-1.59,3-1.59,6.2Z"/></g></g></g></svg>